<?xml version="1.0" encoding="iso-8859-1"?>
<!-- Generator: Adobe Illustrator 19.0.0, SVG Export Plug-In . SVG Version: 6.00 Build 0)  -->
<svg version="1.1" id="Layer_1" xmlns="http://www.w3.org/2000/svg" xmlns:xlink="http://www.w3.org/1999/xlink" x="0px" y="0px"
	 viewBox="0 0 512 512" style="enable-background:new 0 0 512 512;" xml:space="preserve">
<g>
	<g>
		<path d="M430.184,194.351v-93.802c0-10.345-8.387-18.732-18.732-18.732h-97.561C305.091,35.294,264.136,0,215.091,0
			c-49.043,0-89.998,35.294-98.799,81.818H18.732C8.387,81.818,0,90.204,0,100.549v110.786c0,10.345,8.387,18.732,18.732,18.732
			c34.785,0,63.085,28.3,63.085,63.086s-28.3,63.085-63.085,63.085C8.387,356.237,0,364.624,0,374.969v118.299
			C0,503.613,8.387,512,18.732,512h114.543c10.345,0,18.732-8.387,18.732-18.732c0-34.785,28.3-63.086,63.085-63.086
			s63.086,28.3,63.086,63.086c0,10.345,8.387,18.732,18.732,18.732h114.543c10.345,0,18.732-8.387,18.732-18.732V391.951
			c46.523-8.801,81.816-49.756,81.816-98.8C512,244.108,476.707,203.153,430.184,194.351z"/>
	</g>
</g>
<g>
</g>
<g>
</g>
<g>
</g>
<g>
</g>
<g>
</g>
<g>
</g>
<g>
</g>
<g>
</g>
<g>
</g>
<g>
</g>
<g>
</g>
<g>
</g>
<g>
</g>
<g>
</g>
<g>
</g>
</svg>
